<?xml version="1.0" encoding="UTF-8" standalone="no"?>
<!-- Created with Inkscape (http://www.inkscape.org/) -->

<svg
   width="541.86664mm"
   height="541.86664mm"
   viewBox="0 0 541.86664 541.86664"
   version="1.1"
   id="svg5"
   inkscape:version="1.1.2 (b8e25be8, 2022-02-05)"
   sodipodi:docname="camflasher.svg"
   inkscape:export-filename="/Users/remi/Library/Mobile Documents/com~apple~CloudDocs/Developpement/pycameresp/tools/camflasher/icons/camflasher.png"
   inkscape:export-xdpi="96"
   inkscape:export-ydpi="96"
   xmlns:inkscape="http://www.inkscape.org/namespaces/inkscape"
   xmlns:sodipodi="http://sodipodi.sourceforge.net/DTD/sodipodi-0.dtd"
   xmlns:xlink="http://www.w3.org/1999/xlink"
   xmlns="http://www.w3.org/2000/svg"
   xmlns:svg="http://www.w3.org/2000/svg">
  <sodipodi:namedview
     id="namedview7"
     pagecolor="#ffffff"
     bordercolor="#666666"
     borderopacity="1.0"
     inkscape:pageshadow="2"
     inkscape:pageopacity="0.0"
     inkscape:pagecheckerboard="0"
     inkscape:document-units="mm"
     showgrid="false"
     inkscape:snap-bbox="false"
     inkscape:zoom="0.19564443"
     inkscape:cx="-575.02277"
     inkscape:cy="1423.5008"
     inkscape:window-width="1346"
     inkscape:window-height="1016"
     inkscape:window-x="574"
     inkscape:window-y="25"
     inkscape:window-maximized="0"
     inkscape:current-layer="g29408"
     inkscape:snap-global="false"
     fit-margin-top="0"
     fit-margin-left="0"
     fit-margin-right="0"
     fit-margin-bottom="0" />
  <defs
     id="defs2">
    <linearGradient
       inkscape:collect="always"
       id="linearGradient5301">
      <stop
         style="stop-color:#ffcb00;stop-opacity:1"
         offset="0"
         id="stop5297" />
      <stop
         style="stop-color:#ff6d00;stop-opacity:1"
         offset="1"
         id="stop5299" />
    </linearGradient>
    <linearGradient
       inkscape:collect="always"
       xlink:href="#linearGradient5301"
       id="linearGradient27910"
       gradientUnits="userSpaceOnUse"
       gradientTransform="matrix(-0.97354489,0.19576344,-0.26670125,-0.97354489,-1370.6715,67.388169)"
       x1="-311.08545"
       y1="-174.35724"
       x2="-352.91873"
       y2="-46.602402" />
    <filter
       inkscape:collect="always"
       style="color-interpolation-filters:sRGB"
       id="filter29442"
       x="-0.095002641"
       y="-0.13531234"
       width="1.1900053"
       height="1.2706247">
      <feGaussianBlur
         inkscape:collect="always"
         stdDeviation="77.388369"
         id="feGaussianBlur29444" />
    </filter>
    <filter
       inkscape:collect="always"
       style="color-interpolation-filters:sRGB"
       id="filter5978"
       x="-0.091310411"
       y="-0.035303758"
       width="1.1826208"
       height="1.0706075">
      <feGaussianBlur
         inkscape:collect="always"
         stdDeviation="3.08721"
         id="feGaussianBlur5980" />
    </filter>
  </defs>
  <g
     inkscape:label="Calque 1"
     inkscape:groupmode="layer"
     id="layer1"
     transform="translate(172.36312,1097.7618)">
    <g
       id="g15976"
       transform="translate(-1002.1236,-341.26044)">
      <g
         id="g15412"
         transform="translate(-2.3410712,58.141167)">
        <path
           style="fill:#620862;fill-opacity:1;fill-rule:evenodd;stroke:none;stroke-width:0.117161"
           d="m 966.19061,-2.521753 c 0.0187,-10.943752 4.27354,-21.172013 10.81019,-27.022744 -9.83217,-5.198448 -17.41578,-6.301896 -20.60649,-3.173863 -4.30172,4.233289 -0.57456,15.722069 9.7963,30.196607 z"
           id="path6812"
           sodipodi:nodetypes="cccc" />
        <ellipse
           style="fill:#370649;fill-opacity:1;fill-rule:evenodd;stroke:none;stroke-width:0.100697"
           id="ellipse5020"
           cx="988.80615"
           cy="-2.4520433"
           rx="22.616882"
           ry="32" />
        <ellipse
           style="fill:#7f7fd0;fill-opacity:1;fill-rule:evenodd;stroke:none;stroke-width:0.0768624"
           id="ellipse5022"
           cx="988.80615"
           cy="-2.4520433"
           rx="16.810898"
           ry="25.083403" />
        <path
           style="fill:none;stroke:#ffffff;stroke-width:5;stroke-linecap:round;stroke-linejoin:miter;stroke-miterlimit:4;stroke-dasharray:none;stroke-opacity:0.595918"
           d="m 1000.4359,-3.484682 c -0.3883,-8.673479 -4.2434,-15.760859 -8.62016,-18.782419"
           id="path13089-9"
           sodipodi:nodetypes="cc" />
        <path
           style="fill:none;stroke:#ffffff;stroke-width:5;stroke-linecap:round;stroke-linejoin:miter;stroke-miterlimit:4;stroke-dasharray:none;stroke-opacity:0.595918"
           d="m 976.18437,-2.1991813 c 0.38833,8.6734778 4.24338,15.7608593 8.62014,18.7824253"
           id="path13089"
           sodipodi:nodetypes="cc" />
        <path
           id="path5024"
           style="fill:#d76dd7;fill-opacity:1;fill-rule:evenodd;stroke:none;stroke-width:0.100697"
           d="m 988.80685,-34.451908 a 22.616882,31.999999 0 0 1 22.61615,31.99959 22.616882,31.999999 0 0 1 -22.61615,32.00014 h 87.94345 a 22.616882,31.999999 0 0 0 5e-4,0 22.616882,31.999999 0 0 0 22.6168,-32.00014 22.616882,31.999999 0 0 0 -22.6168,-31.99959 22.616882,31.999999 0 0 0 -5e-4,0 z" />
        <path
           id="path5026"
           style="fill:#9b409b;fill-opacity:1;fill-rule:evenodd;stroke:none;stroke-width:0.100697"
           d="m 960.50239,-34.451908 c 14.24574,-0.20342 35.23689,16.83191 50.92061,31.99959 v 5.3e-4 h 87.9446 v -5.3e-4 c -2e-4,-17.67286 -10.126,-31.99946 -22.6168,-31.99959 z"
           sodipodi:nodetypes="ccccscc" />
      </g>
      <path
         id="circle15603"
         style="opacity:1;fill:#370649;fill-opacity:1;fill-rule:evenodd;stroke:none;stroke-width:2.8321;stroke-linecap:round;stroke-miterlimit:4;stroke-dasharray:none;stroke-opacity:0.595918"
         d="m 1037.9972,81.689069 a 15,5.9999998 0 0 0 -14.9996,6.000152 h -5e-4 a 15,15 0 0 0 15.0001,15.000119 15,15 0 0 0 15.0001,-15.000119 15,5.9999998 0 0 0 -15.0001,-6.000152 z" />
    </g>
    <rect
       style="fill:#ffffff;fill-opacity:1;fill-rule:evenodd;stroke:#574c3e;stroke-width:4.32423;stroke-opacity:1"
       id="rect27760"
       width="537.54242"
       height="537.54242"
       x="-170.201"
       y="-1095.5997"
       rx="94.383064"
       ry="94.383064" />
    <g
       id="g29477"
       transform="matrix(0.9626434,0,0,0.9626434,-2096.0408,-480.1997)">
      <path
         id="path27278"
         style="opacity:0.7;fill:#32302d;fill-opacity:1;fill-rule:evenodd;stroke:none;stroke-width:1.54566;filter:url(#filter29442)"
         d="m 10182.555,-4675.6777 c -1.619,-0.032 -3.234,0.067 -4.852,0.07 a 422.16291,298.37528 74.999999 0 0 -1.537,0.021 c -8.946,0.079 -17.882,0.6067 -26.783,1.7949 a 422.16291,298.37528 74.999999 0 0 -0.174,0.023 c -9.02,1.2116 -18.007,2.9707 -26.934,5.3614 a 422.16291,298.37528 74.999999 0 0 -0.03,0.01 l -1120.6542,300.2773 a 422.16292,298.37529 74.999999 0 0 -0.025,0.01 422.16292,298.37529 74.999999 0 0 -0.031,0.01 l -340.1856,91.1524 c -3.8434,0.9026 -7.5539,1.8966 -11.1289,2.9824 l -9.3301,2.5 c 2.6873,-0.7614 5.4116,-1.4713 8.1621,-2.1465 -25.736,8.0253 -44.3082,20.8532 -54.5918,38.2637 -40.3623,68.6332 46.3616,202.3107 227.9414,351.3496 -2.2811,-8.572 -4.347,-17.1656 -6.205,-25.7656 a 422.16292,298.37529 74.999999 0 0 6.4257,26.6582 422.16292,298.37529 74.999999 0 0 397.4727,330.5527 422.16292,298.37529 74.999999 0 0 0.1,-0.029 l 697.3985,-186.8672 v 0 a 197.88887,197.88887 0 0 0 171.4082,145.6524 52.770331,52.770331 0 0 0 -0.602,7.8066 v 115.0762 c 0,50.6139 20.226,98.3861 56.944,127.7207 36.717,29.3346 83.802,40.1269 134.551,40.1269 h 138.728 a 52.770331,52.770331 0 0 0 52.772,-52.7656 52.770331,52.770331 0 0 0 -52.772,-52.7715 h -138.728 c -35.254,0 -57.529,-8.1407 -68.674,-17.0449 -11.146,-8.9042 -17.282,-18.6781 -17.282,-45.2656 v -115.0762 a 52.770331,52.770331 0 0 0 -5.552,-23.5371 197.88887,197.88887 0 0 0 111.502,-232.3574 79.155545,197.88887 74.999999 0 0 0,-0.01 l 40.884,-10.9551 a 422.16291,298.37528 74.999999 0 0 178.944,-485.0019 v 0 c -3.256,-12.1485 -6.916,-24.0237 -10.834,-35.705 a 422.16291,298.37528 74.999999 0 0 -0.76,-2.3243 c -4.015,-11.8094 -8.388,-23.3388 -13.037,-34.6289 a 422.16291,298.37528 74.999999 0 0 -0.652,-1.6015 c -4.851,-11.6799 -10.033,-23.0558 -15.514,-34.1348 a 422.16291,298.37528 74.999999 0 0 -0.238,-0.4824 c -11.399,-22.9845 -24.081,-44.6327 -37.866,-64.75 a 422.16291,298.37528 74.999999 0 0 -0.07,-0.094 c -6.95,-10.1369 -14.157,-19.9006 -21.627,-29.2382 a 422.16291,298.37528 74.999999 0 0 -0.324,-0.3965 c -7.424,-9.2586 -15.073,-18.137 -22.953,-26.5606 a 422.16291,298.37528 74.999999 0 0 -0.694,-0.7168 c -7.859,-8.3635 -15.912,-16.3378 -24.168,-23.8261 a 422.16291,298.37528 74.999999 0 0 -0.414,-0.3594 c -8.291,-7.4998 -16.763,-14.5477 -25.396,-21.1192 a 422.16291,298.37528 74.999999 0 0 -0.346,-0.2734 c -8.611,-6.5389 -17.389,-12.5632 -26.285,-18.1328 a 422.16291,298.37528 74.999999 0 0 -0.781,-0.5078 c -8.898,-5.5367 -17.927,-10.539 -27.051,-15.0606 a 422.16291,298.37528 74.999999 0 0 -0.576,-0.2949 c -9.187,-4.5282 -18.475,-8.5004 -27.834,-11.9531 a 422.16291,298.37528 74.999999 0 0 -0.227,-0.088 c -9.356,-3.442 -18.78,-6.312 -28.252,-8.6328 a 422.16291,298.37528 74.999999 0 0 -0.16,-0.041 c -9.321,-2.2774 -18.68,-3.9881 -28.061,-5.1348 a 422.16291,298.37528 74.999999 0 0 -0.64,-0.078 c -7.466,-0.8917 -14.938,-1.5418 -22.41,-1.6914 z m -774.7347,675.7656 a 422.16291,298.37528 74.999999 0 1 0.1035,0.5039 422.16292,298.37529 74.999999 0 0 -0.1035,-0.5039 z m 6.3106,38.125 a 422.16291,298.37528 74.999999 0 1 0.1113,0.8164 422.16292,298.37529 74.999999 0 0 -0.1113,-0.8164 z m -602.3399,29.3398 a 422.16292,298.37529 74.999999 0 0 3.0567,16.25 c -1.104,-5.4161 -2.118,-10.8332 -3.0567,-16.25 z m 606.0879,8.8243 a 422.16291,298.37528 74.999999 0 1 0.074,1.1054 422.16292,298.37529 74.999999 0 0 -0.074,-1.1054 z m 1.1504,37.9609 a 422.16291,298.37528 74.999999 0 1 -0.01,1.1973 422.16292,298.37529 74.999999 0 0 0.01,-1.1973 z m -1.4785,37.3848 a 422.16291,298.37528 74.999999 0 1 -0.092,1.1679 422.16292,298.37529 74.999999 0 0 0.092,-1.1679 z m -4.1113,36.5097 a 422.16291,298.37528 74.999999 0 1 -0.1485,0.9531 422.16292,298.37529 74.999999 0 0 0.1485,-0.9531 z m -6.711,35.2539 a 422.16291,298.37528 74.999999 0 1 -0.1601,0.6641 422.16292,298.37529 74.999999 0 0 0.1601,-0.6641 z m -9.2715,33.7285 a 422.16291,298.37528 74.999999 0 1 -0.074,0.2207 422.16292,298.37529 74.999999 0 0 0.074,-0.2207 z m -11.6718,31.6543 a 422.16291,298.37528 74.999999 0 1 -0.072,0.1778 422.16292,298.37529 74.999999 0 0 0.072,-0.1778 z m -13.9102,29.3204 a 422.16291,298.37528 74.999999 0 1 -0.2969,0.5664 422.16292,298.37529 74.999999 0 0 0.2969,-0.5664 z m -16.1836,27.1171 a 422.16291,298.37528 74.999999 0 1 -0.4512,0.6817 422.16292,298.37529 74.999999 0 0 0.4512,-0.6817 z m -18.2891,24.5625 a 422.16291,298.37528 74.999999 0 1 -0.5918,0.7129 422.16292,298.37529 74.999999 0 0 0.5918,-0.7129 z m -20.2636,21.8047 a 422.16291,298.37528 74.999999 0 1 -0.6485,0.6172 422.16292,298.37529 74.999999 0 0 0.6485,-0.6172 z m -22.0508,18.8164 a 422.16291,298.37528 74.999999 0 1 -0.6484,0.4825 422.16292,298.37529 74.999999 0 0 0.6484,-0.4825 z m -23.6524,15.6563 a 422.16291,298.37528 74.999999 0 1 -0.5664,0.3183 422.16292,298.37529 74.999999 0 0 0.5664,-0.3183 z m -25.0937,12.3691 a 422.16291,298.37528 74.999999 0 1 -0.2891,0.1153 422.16292,298.37529 74.999999 0 0 0.2891,-0.1153 z"
         transform="matrix(0.26458333,0,0,0.26458333,-250.22914,695.44203)" />
      <g
         id="g29408"
         transform="translate(1007.416,695.44202)">
        <g
           id="g29404"
           transform="rotate(10,1252.2649,-1170.9389)">
          <g
             id="g29400"
             transform="matrix(3.1635034,-1.4751659,1.4751659,3.1635034,-1955.2466,415.31251)">
            <path
               style="fill:#494a4c;fill-opacity:1;fill-rule:evenodd;stroke:none;stroke-width:0.117161"
               d="m 966.19061,-2.521753 c 0.0187,-10.943752 4.27354,-21.172013 10.81019,-27.022744 -9.83217,-5.198448 -17.41578,-6.301896 -20.60649,-3.173863 -4.30172,4.233289 -0.57456,15.722069 9.7963,30.196607 z"
               id="path29386"
               sodipodi:nodetypes="cccc" />
            <ellipse
               style="fill:#20253e;fill-opacity:1;fill-rule:evenodd;stroke:none;stroke-width:0.100697"
               id="ellipse29388"
               cx="988.80615"
               cy="-2.4520433"
               rx="22.616882"
               ry="32" />
            <ellipse
               style="fill:#87b3e8;fill-opacity:1;fill-rule:evenodd;stroke:none;stroke-width:0.0768624"
               id="ellipse29390"
               cx="988.80615"
               cy="-2.4520433"
               rx="16.810881"
               ry="25.083403" />
            <path
               style="fill:none;stroke:#ffffff;stroke-width:5;stroke-linecap:round;stroke-linejoin:miter;stroke-miterlimit:4;stroke-dasharray:none;stroke-opacity:0.595918"
               d="m 1000.4359,-3.484682 c -0.3883,-8.673479 -4.2434,-15.760859 -8.62016,-18.782419"
               id="path29392"
               sodipodi:nodetypes="cc" />
            <path
               style="fill:none;stroke:#ffffff;stroke-width:5;stroke-linecap:round;stroke-linejoin:miter;stroke-miterlimit:4;stroke-dasharray:none;stroke-opacity:0.595918"
               d="m 976.18437,-2.1991813 c 0.38833,8.6734778 4.24338,15.7608593 8.62014,18.7824253"
               id="path29394"
               sodipodi:nodetypes="cc" />
            <path
               id="path29396"
               style="fill:#ffd500;fill-opacity:1;fill-rule:evenodd;stroke:none;stroke-width:0.100697"
               d="m 988.80685,-34.451908 a 22.616882,31.999999 0 0 1 22.61615,31.99959 22.616882,31.999999 0 0 1 -22.61615,32.00014 h 87.94345 a 22.616882,31.999999 0 0 0 5e-4,0 22.616882,31.999999 0 0 0 22.6168,-32.00014 22.616882,31.999999 0 0 0 -22.6168,-31.99959 22.616882,31.999999 0 0 0 -5e-4,0 z" />
            <path
               id="path29398"
               style="fill:#005bbb;fill-opacity:1;fill-rule:evenodd;stroke:none;stroke-width:0.100697"
               d="m 960.50239,-34.451908 c 14.24574,-0.20342 35.23689,16.83191 50.92061,31.99959 v 5.3e-4 h 87.9446 v -5.3e-4 c -2e-4,-17.67286 -10.126,-31.99946 -22.6168,-31.99959 z"
               sodipodi:nodetypes="ccccscc" />
          </g>
          <path
             id="path29402"
             style="fill:#20253e;fill-opacity:1;fill-rule:evenodd;stroke:none;stroke-width:9.88556;stroke-linecap:round;stroke-miterlimit:4;stroke-dasharray:none;stroke-opacity:0.595918"
             d="m 1428.1897,-1071.7174 a 20.943238,52.358097 64.999999 0 0 -38.6001,41.1084 v 8e-4 a 52.358097,52.358097 0 0 0 69.5805,25.3253 52.358097,52.358097 0 0 0 25.3252,-69.5806 20.943238,52.358097 64.999999 0 0 -56.3041,3.1461 z" />
        </g>
        <path
           style="fill:none;stroke:#a8a8a8;stroke-width:27.9243;stroke-linecap:round;stroke-linejoin:round;stroke-miterlimit:4;stroke-dasharray:none;stroke-opacity:1"
           d="m 1422.2898,-968.29118 v 30.44783 c 0,20.42625 13.9502,30.44782 36.7049,30.44782 h 36.7049"
           id="path29406"
           sodipodi:nodetypes="cccc" />
      </g>
    </g>
    <g
       id="g28615"
       transform="matrix(1.0593136,0.17415238,-0.29790043,1.0886993,-569.84954,-455.76299)"
       inkscape:transform-center-x="6.8087894"
       inkscape:transform-center-y="0.29100559">
      <g
         id="g3516"
         transform="matrix(-1.2610557,-1.1654134,0.53805537,-2.2519,-848.43029,-1389.8807)"
         inkscape:transform-center-x="9.6763107"
         inkscape:transform-center-y="-1.3405314"
         style="opacity:0.767442;fill:#090505;fill-opacity:1;filter:url(#filter5978)">
        <path
           sodipodi:nodetypes="ccccccc"
           inkscape:connector-curvature="0"
           id="path5321-2"
           d="m -1024.2703,209.71796 4.5323,-107.57842 -27.5099,5.994 5.1005,-108.28778844 16.7831,87.00590844 32.73383,-7.089504 z"
           style="fill:#090505;fill-opacity:1;stroke:none;stroke-width:0.264583px;stroke-linecap:butt;stroke-linejoin:miter;stroke-opacity:1" />
        <path
           sodipodi:nodetypes="ccccccc"
           inkscape:connector-curvature="0"
           id="path5321"
           d="m -1042.1351,-0.15499001 -4.5323,107.57842001 27.5099,-5.994 -5.1005,108.28748 -16.783,-87.0059 -32.7336,7.08951 z"
           style="fill:#090505;fill-opacity:1;stroke:none;stroke-width:0.264583px;stroke-linecap:butt;stroke-linejoin:miter;stroke-opacity:1" />
      </g>
      <g
         id="g27908"
         transform="matrix(-1.2610557,-1.1654134,0.53805537,-2.2519,-845.25605,-1388.5098)"
         inkscape:transform-center-x="9.6762646"
         inkscape:transform-center-y="-1.3404862">
        <path
           sodipodi:nodetypes="ccccccc"
           inkscape:connector-curvature="0"
           id="path27904"
           d="m -1024.2703,209.71796 4.5323,-107.57842 -27.5099,5.994 5.1005,-108.28778844 16.7831,87.00590844 32.73383,-7.089504 z"
           style="fill:#fff11b;fill-opacity:1;stroke:none;stroke-width:0.264583px;stroke-linecap:butt;stroke-linejoin:miter;stroke-opacity:1" />
        <path
           sodipodi:nodetypes="ccccccc"
           inkscape:connector-curvature="0"
           id="path27906"
           d="m -1042.1351,-0.15499001 -4.5323,107.57842001 27.5099,-5.994 -5.1005,108.28748 -16.783,-87.0059 -32.7336,7.08951 z"
           style="fill:url(#linearGradient27910);fill-opacity:1;stroke:none;stroke-width:0.264583px;stroke-linecap:butt;stroke-linejoin:miter;stroke-opacity:1" />
      </g>
    </g>
  </g>
</svg>
